<svg xmlns="http://www.w3.org/2000/svg" width="16" height="16" viewBox="0 0 16 16">
    <g fill="none" fill-rule="evenodd">
        <path fill="#20A470" fill-rule="nonzero" d="M14.911 3.98a7.958 7.958 0 0 0-2.908-2.908A7.817 7.817 0 0 0 7.992 0C6.542 0 5.205.357 3.98 1.072A7.956 7.956 0 0 0 1.072 3.98 7.817 7.817 0 0 0 0 7.992c0 1.45.357 2.786 1.072 4.01a7.958 7.958 0 0 0 2.908 2.91 7.818 7.818 0 0 0 4.012 1.071c1.45 0 2.787-.357 4.011-1.072a7.956 7.956 0 0 0 2.908-2.908 7.818 7.818 0 0 0 1.072-4.011A7.82 7.82 0 0 0 14.91 3.98z"/>
        <path fill="#FFF" d="M11.86 6.575L7.651 10.85a.482.482 0 0 1-.356.15.473.473 0 0 1-.35-.15L4.14 8A.485.485 0 0 1 4 7.646c0-.147.046-.268.14-.363l.705-.708c.098-.1.214-.15.349-.15.134 0 .25.05.349.15l1.752 1.78 3.162-3.205c.099-.1.215-.15.35-.15.133 0 .25.05.348.15l.705.708c.094.095.14.215.14.362 0 .142-.046.26-.14.355z"/>
    </g>
</svg>
